<mxfile host="Electron" agent="Mozilla/5.0 (Windows NT 10.0; Win64; x64) AppleWebKit/537.36 (KHTML, like Gecko) draw.io/26.0.16 Chrome/132.0.6834.196 Electron/34.2.0 Safari/537.36" version="26.0.16" pages="2">
  <diagram id="n-ps6hEobFweKa0WREre" name="Страница — 1">
    <mxGraphModel dx="1434" dy="884" grid="1" gridSize="10" guides="1" tooltips="1" connect="1" arrows="1" fold="1" page="1" pageScale="1" pageWidth="2000" pageHeight="2000" math="0" shadow="0">
      <root>
        <mxCell id="0" />
        <mxCell id="1" parent="0" />
        <mxCell id="TYahg0QMOu6PUOr_qrVB-1" value="Клиент" style="shape=umlActor;verticalLabelPosition=bottom;verticalAlign=top;html=1;outlineConnect=0;" parent="1" vertex="1">
          <mxGeometry x="1235" y="720" width="30" height="60" as="geometry" />
        </mxCell>
        <mxCell id="TYahg0QMOu6PUOr_qrVB-2" value="Авторизация" style="ellipse;whiteSpace=wrap;html=1;" parent="1" vertex="1">
          <mxGeometry x="1190" y="510" width="120" height="80" as="geometry" />
        </mxCell>
        <mxCell id="TYahg0QMOu6PUOr_qrVB-4" value="Просмотр каталога" style="ellipse;whiteSpace=wrap;html=1;" parent="1" vertex="1">
          <mxGeometry x="850" y="930" width="120" height="80" as="geometry" />
        </mxCell>
        <mxCell id="TYahg0QMOu6PUOr_qrVB-5" value="Поиск товара" style="ellipse;whiteSpace=wrap;html=1;" parent="1" vertex="1">
          <mxGeometry x="850" y="1060" width="120" height="80" as="geometry" />
        </mxCell>
        <mxCell id="TYahg0QMOu6PUOr_qrVB-6" value="" style="endArrow=block;html=1;rounded=0;exitX=0.5;exitY=0;exitDx=0;exitDy=0;entryX=0.5;entryY=1;entryDx=0;entryDy=0;endFill=0;dashed=1;dashPattern=8 8;" parent="1" source="TYahg0QMOu6PUOr_qrVB-5" target="TYahg0QMOu6PUOr_qrVB-4" edge="1">
          <mxGeometry relative="1" as="geometry">
            <mxPoint x="700" y="1070" as="sourcePoint" />
            <mxPoint x="1010" y="1060" as="targetPoint" />
          </mxGeometry>
        </mxCell>
        <mxCell id="TYahg0QMOu6PUOr_qrVB-7" value="&amp;lt;&amp;lt; extend &amp;gt;&amp;gt;" style="edgeLabel;resizable=0;html=1;;align=center;verticalAlign=middle;" parent="TYahg0QMOu6PUOr_qrVB-6" connectable="0" vertex="1">
          <mxGeometry relative="1" as="geometry" />
        </mxCell>
        <mxCell id="TYahg0QMOu6PUOr_qrVB-9" value="Добавить товара в корзину" style="ellipse;whiteSpace=wrap;html=1;" parent="1" vertex="1">
          <mxGeometry x="1040" y="910" width="120" height="80" as="geometry" />
        </mxCell>
        <mxCell id="TYahg0QMOu6PUOr_qrVB-10" value="Оформить&lt;div&gt;&amp;nbsp;заказ&lt;/div&gt;" style="ellipse;whiteSpace=wrap;html=1;" parent="1" vertex="1">
          <mxGeometry x="1145" y="1090" width="120" height="80" as="geometry" />
        </mxCell>
        <mxCell id="TYahg0QMOu6PUOr_qrVB-11" value="Выбрать способ оплаты" style="ellipse;whiteSpace=wrap;html=1;" parent="1" vertex="1">
          <mxGeometry x="990" y="1250" width="120" height="80" as="geometry" />
        </mxCell>
        <mxCell id="TYahg0QMOu6PUOr_qrVB-12" value="Выбрать способ доставки" style="ellipse;whiteSpace=wrap;html=1;" parent="1" vertex="1">
          <mxGeometry x="1315" y="1260" width="120" height="80" as="geometry" />
        </mxCell>
        <mxCell id="TYahg0QMOu6PUOr_qrVB-13" value="" style="endArrow=block;html=1;rounded=0;exitX=0;exitY=1;exitDx=0;exitDy=0;entryX=0.5;entryY=0;entryDx=0;entryDy=0;endFill=0;dashed=1;dashPattern=8 8;" parent="1" source="TYahg0QMOu6PUOr_qrVB-10" target="TYahg0QMOu6PUOr_qrVB-11" edge="1">
          <mxGeometry relative="1" as="geometry">
            <mxPoint x="1195" y="1220" as="sourcePoint" />
            <mxPoint x="1295" y="1220" as="targetPoint" />
          </mxGeometry>
        </mxCell>
        <mxCell id="TYahg0QMOu6PUOr_qrVB-14" value="&amp;lt;&amp;lt; include &amp;gt;&amp;gt;" style="edgeLabel;resizable=0;html=1;;align=center;verticalAlign=middle;" parent="TYahg0QMOu6PUOr_qrVB-13" connectable="0" vertex="1">
          <mxGeometry relative="1" as="geometry" />
        </mxCell>
        <mxCell id="TYahg0QMOu6PUOr_qrVB-16" value="" style="endArrow=block;html=1;rounded=0;exitX=1;exitY=1;exitDx=0;exitDy=0;entryX=0.5;entryY=0;entryDx=0;entryDy=0;endFill=0;dashed=1;dashPattern=8 8;" parent="1" source="TYahg0QMOu6PUOr_qrVB-10" target="TYahg0QMOu6PUOr_qrVB-12" edge="1">
          <mxGeometry relative="1" as="geometry">
            <mxPoint x="1295" y="1190" as="sourcePoint" />
            <mxPoint x="1205" y="1270" as="targetPoint" />
          </mxGeometry>
        </mxCell>
        <mxCell id="TYahg0QMOu6PUOr_qrVB-17" value="&amp;lt;&amp;lt; include &amp;gt;&amp;gt;" style="edgeLabel;resizable=0;html=1;;align=center;verticalAlign=middle;" parent="TYahg0QMOu6PUOr_qrVB-16" connectable="0" vertex="1">
          <mxGeometry relative="1" as="geometry" />
        </mxCell>
        <mxCell id="TYahg0QMOu6PUOr_qrVB-19" value="Отслеживать заказа" style="ellipse;whiteSpace=wrap;html=1;" parent="1" vertex="1">
          <mxGeometry x="1420" y="910" width="120" height="80" as="geometry" />
        </mxCell>
        <mxCell id="TYahg0QMOu6PUOr_qrVB-20" value="Оставить отзыв" style="ellipse;whiteSpace=wrap;html=1;" parent="1" vertex="1">
          <mxGeometry x="860" y="720" width="120" height="80" as="geometry" />
        </mxCell>
        <mxCell id="TYahg0QMOu6PUOr_qrVB-21" value="Оценить товар" style="ellipse;whiteSpace=wrap;html=1;" parent="1" vertex="1">
          <mxGeometry x="630" y="720" width="120" height="80" as="geometry" />
        </mxCell>
        <mxCell id="TYahg0QMOu6PUOr_qrVB-22" value="" style="endArrow=block;html=1;rounded=0;exitX=0;exitY=0.5;exitDx=0;exitDy=0;entryX=1;entryY=0.5;entryDx=0;entryDy=0;endFill=0;dashed=1;dashPattern=8 8;" parent="1" source="TYahg0QMOu6PUOr_qrVB-20" target="TYahg0QMOu6PUOr_qrVB-21" edge="1">
          <mxGeometry relative="1" as="geometry">
            <mxPoint x="750" y="880" as="sourcePoint" />
            <mxPoint x="850" y="880" as="targetPoint" />
          </mxGeometry>
        </mxCell>
        <mxCell id="TYahg0QMOu6PUOr_qrVB-23" value="&amp;lt;&amp;lt; include &amp;gt;&amp;gt;" style="edgeLabel;resizable=0;html=1;;align=center;verticalAlign=middle;" parent="TYahg0QMOu6PUOr_qrVB-22" connectable="0" vertex="1">
          <mxGeometry relative="1" as="geometry" />
        </mxCell>
        <mxCell id="TYahg0QMOu6PUOr_qrVB-24" value="Просмотреть корзину" style="ellipse;whiteSpace=wrap;html=1;" parent="1" vertex="1">
          <mxGeometry x="1240" y="910" width="120" height="80" as="geometry" />
        </mxCell>
        <mxCell id="TYahg0QMOu6PUOr_qrVB-36" value="" style="endArrow=block;html=1;rounded=0;exitX=0.5;exitY=0;exitDx=0;exitDy=0;endFill=0;entryX=0;entryY=1;entryDx=0;entryDy=0;dashed=1;dashPattern=8 8;" parent="1" source="TYahg0QMOu6PUOr_qrVB-10" target="TYahg0QMOu6PUOr_qrVB-24" edge="1">
          <mxGeometry relative="1" as="geometry">
            <mxPoint x="1190" y="1110" as="sourcePoint" />
            <mxPoint x="1310" y="1060" as="targetPoint" />
          </mxGeometry>
        </mxCell>
        <mxCell id="TYahg0QMOu6PUOr_qrVB-37" value="&amp;lt;&amp;lt; extend &amp;gt;&amp;gt;" style="edgeLabel;resizable=0;html=1;;align=center;verticalAlign=middle;" parent="TYahg0QMOu6PUOr_qrVB-36" connectable="0" vertex="1">
          <mxGeometry relative="1" as="geometry" />
        </mxCell>
        <mxCell id="TYahg0QMOu6PUOr_qrVB-38" value="Удалить товар из корзины" style="ellipse;whiteSpace=wrap;html=1;" parent="1" vertex="1">
          <mxGeometry x="1350" y="1090" width="120" height="80" as="geometry" />
        </mxCell>
        <mxCell id="TYahg0QMOu6PUOr_qrVB-39" value="" style="endArrow=block;html=1;rounded=0;exitX=0.5;exitY=0;exitDx=0;exitDy=0;endFill=0;entryX=1;entryY=1;entryDx=0;entryDy=0;dashed=1;dashPattern=8 8;" parent="1" source="TYahg0QMOu6PUOr_qrVB-38" target="TYahg0QMOu6PUOr_qrVB-24" edge="1">
          <mxGeometry relative="1" as="geometry">
            <mxPoint x="1215" y="1100" as="sourcePoint" />
            <mxPoint x="1268" y="988" as="targetPoint" />
          </mxGeometry>
        </mxCell>
        <mxCell id="TYahg0QMOu6PUOr_qrVB-40" value="&amp;lt;&amp;lt; extend &amp;gt;&amp;gt;" style="edgeLabel;resizable=0;html=1;;align=center;verticalAlign=middle;" parent="TYahg0QMOu6PUOr_qrVB-39" connectable="0" vertex="1">
          <mxGeometry relative="1" as="geometry" />
        </mxCell>
        <mxCell id="TYahg0QMOu6PUOr_qrVB-41" value="Ввод номера телефона" style="ellipse;whiteSpace=wrap;html=1;" parent="1" vertex="1">
          <mxGeometry x="1190" y="360" width="120" height="80" as="geometry" />
        </mxCell>
        <mxCell id="TYahg0QMOu6PUOr_qrVB-43" value="" style="endArrow=block;html=1;rounded=0;exitX=0.5;exitY=0;exitDx=0;exitDy=0;entryX=0.5;entryY=1;entryDx=0;entryDy=0;endFill=0;dashed=1;dashPattern=8 8;" parent="1" source="TYahg0QMOu6PUOr_qrVB-2" target="TYahg0QMOu6PUOr_qrVB-41" edge="1">
          <mxGeometry relative="1" as="geometry">
            <mxPoint x="1109.9999999999966" y="530" as="sourcePoint" />
            <mxPoint x="999.9999999999966" y="530" as="targetPoint" />
          </mxGeometry>
        </mxCell>
        <mxCell id="TYahg0QMOu6PUOr_qrVB-44" value="&amp;lt;&amp;lt; include &amp;gt;&amp;gt;" style="edgeLabel;resizable=0;html=1;;align=center;verticalAlign=middle;" parent="TYahg0QMOu6PUOr_qrVB-43" connectable="0" vertex="1">
          <mxGeometry relative="1" as="geometry" />
        </mxCell>
        <mxCell id="TYahg0QMOu6PUOr_qrVB-45" value="Просмотреть профиль" style="ellipse;whiteSpace=wrap;html=1;" parent="1" vertex="1">
          <mxGeometry x="1510" y="720" width="120" height="80" as="geometry" />
        </mxCell>
        <mxCell id="TYahg0QMOu6PUOr_qrVB-46" value="Редактировать информацию" style="ellipse;whiteSpace=wrap;html=1;" parent="1" vertex="1">
          <mxGeometry x="1780" y="760" width="120" height="80" as="geometry" />
        </mxCell>
        <mxCell id="TYahg0QMOu6PUOr_qrVB-47" value="Доставить в пункт выдачи" style="ellipse;whiteSpace=wrap;html=1;" parent="1" vertex="1">
          <mxGeometry x="1235" y="1410" width="120" height="80" as="geometry" />
        </mxCell>
        <mxCell id="TYahg0QMOu6PUOr_qrVB-48" value="Доставить курьером к клиенту" style="ellipse;whiteSpace=wrap;html=1;" parent="1" vertex="1">
          <mxGeometry x="1405" y="1410" width="120" height="80" as="geometry" />
        </mxCell>
        <mxCell id="TYahg0QMOu6PUOr_qrVB-51" value="" style="endArrow=open;html=1;rounded=0;exitX=0;exitY=0.5;exitDx=0;exitDy=0;entryX=1;entryY=0.5;entryDx=0;entryDy=0;endFill=0;dashed=1;dashPattern=8 8;" parent="1" source="TYahg0QMOu6PUOr_qrVB-46" target="TYahg0QMOu6PUOr_qrVB-45" edge="1">
          <mxGeometry relative="1" as="geometry">
            <mxPoint x="1660" y="880" as="sourcePoint" />
            <mxPoint x="1660" y="800" as="targetPoint" />
          </mxGeometry>
        </mxCell>
        <mxCell id="TYahg0QMOu6PUOr_qrVB-52" value="&amp;lt;&amp;lt; extend &amp;gt;&amp;gt;" style="edgeLabel;resizable=0;html=1;;align=center;verticalAlign=middle;" parent="TYahg0QMOu6PUOr_qrVB-51" connectable="0" vertex="1">
          <mxGeometry relative="1" as="geometry" />
        </mxCell>
        <mxCell id="TYahg0QMOu6PUOr_qrVB-53" value="Редактировать имя" style="ellipse;whiteSpace=wrap;html=1;" parent="1" vertex="1">
          <mxGeometry x="1780" y="910" width="120" height="80" as="geometry" />
        </mxCell>
        <mxCell id="TYahg0QMOu6PUOr_qrVB-55" value="Изменить пол" style="ellipse;whiteSpace=wrap;html=1;" parent="1" vertex="1">
          <mxGeometry x="1950" y="910" width="120" height="80" as="geometry" />
        </mxCell>
        <mxCell id="TYahg0QMOu6PUOr_qrVB-57" value="Изменить реквизиты оплаты" style="ellipse;whiteSpace=wrap;html=1;" parent="1" vertex="1">
          <mxGeometry x="1610" y="910" width="120" height="80" as="geometry" />
        </mxCell>
        <mxCell id="TYahg0QMOu6PUOr_qrVB-64" value="Оплатить при получении" style="ellipse;whiteSpace=wrap;html=1;" parent="1" vertex="1">
          <mxGeometry x="860" y="1400" width="120" height="80" as="geometry" />
        </mxCell>
        <mxCell id="TYahg0QMOu6PUOr_qrVB-65" value="Оплатить при заказе" style="ellipse;whiteSpace=wrap;html=1;" parent="1" vertex="1">
          <mxGeometry x="1080" y="1400" width="120" height="80" as="geometry" />
        </mxCell>
        <mxCell id="TYahg0QMOu6PUOr_qrVB-68" value="" style="endArrow=open;endFill=1;endSize=12;html=1;rounded=0;entryX=1;entryY=0.5;entryDx=0;entryDy=0;" parent="1" target="TYahg0QMOu6PUOr_qrVB-20" edge="1">
          <mxGeometry width="160" relative="1" as="geometry">
            <mxPoint x="1220" y="760" as="sourcePoint" />
            <mxPoint x="1030" y="650" as="targetPoint" />
          </mxGeometry>
        </mxCell>
        <mxCell id="TYahg0QMOu6PUOr_qrVB-69" value="" style="endArrow=open;endFill=1;endSize=12;html=1;rounded=0;entryX=0.5;entryY=1;entryDx=0;entryDy=0;" parent="1" target="TYahg0QMOu6PUOr_qrVB-2" edge="1">
          <mxGeometry width="160" relative="1" as="geometry">
            <mxPoint x="1250" y="710" as="sourcePoint" />
            <mxPoint x="1490" y="750.0000000000002" as="targetPoint" />
          </mxGeometry>
        </mxCell>
        <mxCell id="TYahg0QMOu6PUOr_qrVB-71" value="" style="endArrow=open;endFill=1;endSize=12;html=1;rounded=0;entryX=0.5;entryY=0;entryDx=0;entryDy=0;" parent="1" target="TYahg0QMOu6PUOr_qrVB-9" edge="1">
          <mxGeometry width="160" relative="1" as="geometry">
            <mxPoint x="1230" y="810" as="sourcePoint" />
            <mxPoint x="1570" y="850.0000000000002" as="targetPoint" />
          </mxGeometry>
        </mxCell>
        <mxCell id="TYahg0QMOu6PUOr_qrVB-73" value="" style="endArrow=open;endFill=1;endSize=12;html=1;rounded=0;entryX=0.5;entryY=0;entryDx=0;entryDy=0;" parent="1" target="TYahg0QMOu6PUOr_qrVB-19" edge="1">
          <mxGeometry width="160" relative="1" as="geometry">
            <mxPoint x="1280" y="790" as="sourcePoint" />
            <mxPoint x="1540" y="840.0000000000002" as="targetPoint" />
          </mxGeometry>
        </mxCell>
        <mxCell id="TYahg0QMOu6PUOr_qrVB-74" value="" style="endArrow=open;endFill=1;endSize=12;html=1;rounded=0;entryX=0;entryY=0.5;entryDx=0;entryDy=0;" parent="1" target="TYahg0QMOu6PUOr_qrVB-45" edge="1">
          <mxGeometry width="160" relative="1" as="geometry">
            <mxPoint x="1280" y="760" as="sourcePoint" />
            <mxPoint x="1490" y="740.0000000000002" as="targetPoint" />
          </mxGeometry>
        </mxCell>
        <mxCell id="TYahg0QMOu6PUOr_qrVB-75" value="" style="endArrow=open;endFill=1;endSize=12;html=1;rounded=0;entryX=0.5;entryY=0;entryDx=0;entryDy=0;" parent="1" target="TYahg0QMOu6PUOr_qrVB-4" edge="1">
          <mxGeometry width="160" relative="1" as="geometry">
            <mxPoint x="1220" y="790" as="sourcePoint" />
            <mxPoint x="1090" y="840.0000000000002" as="targetPoint" />
          </mxGeometry>
        </mxCell>
        <mxCell id="TYahg0QMOu6PUOr_qrVB-76" value="" style="endArrow=open;endFill=1;endSize=12;html=1;rounded=0;entryX=0.5;entryY=0;entryDx=0;entryDy=0;" parent="1" target="TYahg0QMOu6PUOr_qrVB-24" edge="1">
          <mxGeometry width="160" relative="1" as="geometry">
            <mxPoint x="1270" y="810" as="sourcePoint" />
            <mxPoint x="1400" y="890.0000000000002" as="targetPoint" />
          </mxGeometry>
        </mxCell>
        <mxCell id="TYahg0QMOu6PUOr_qrVB-93" value="" style="endArrow=block;html=1;rounded=0;exitX=0.5;exitY=0;exitDx=0;exitDy=0;entryX=0;entryY=1;entryDx=0;entryDy=0;endFill=0;" parent="1" source="TYahg0QMOu6PUOr_qrVB-57" target="TYahg0QMOu6PUOr_qrVB-46" edge="1">
          <mxGeometry width="50" height="50" relative="1" as="geometry">
            <mxPoint x="1800" y="890" as="sourcePoint" />
            <mxPoint x="1850" y="840" as="targetPoint" />
          </mxGeometry>
        </mxCell>
        <mxCell id="TYahg0QMOu6PUOr_qrVB-95" value="" style="endArrow=block;html=1;rounded=0;exitX=0.5;exitY=0;exitDx=0;exitDy=0;entryX=0.5;entryY=1;entryDx=0;entryDy=0;endFill=0;" parent="1" source="TYahg0QMOu6PUOr_qrVB-53" target="TYahg0QMOu6PUOr_qrVB-46" edge="1">
          <mxGeometry width="50" height="50" relative="1" as="geometry">
            <mxPoint x="1790" y="920" as="sourcePoint" />
            <mxPoint x="1908" y="858" as="targetPoint" />
          </mxGeometry>
        </mxCell>
        <mxCell id="TYahg0QMOu6PUOr_qrVB-97" value="" style="endArrow=block;html=1;rounded=0;exitX=0.5;exitY=0;exitDx=0;exitDy=0;entryX=1;entryY=1;entryDx=0;entryDy=0;endFill=0;" parent="1" source="TYahg0QMOu6PUOr_qrVB-55" target="TYahg0QMOu6PUOr_qrVB-46" edge="1">
          <mxGeometry width="50" height="50" relative="1" as="geometry">
            <mxPoint x="1800" y="930" as="sourcePoint" />
            <mxPoint x="1918" y="868" as="targetPoint" />
          </mxGeometry>
        </mxCell>
        <mxCell id="TYahg0QMOu6PUOr_qrVB-101" value="" style="endArrow=block;html=1;rounded=0;exitX=0.5;exitY=0;exitDx=0;exitDy=0;entryX=0;entryY=1;entryDx=0;entryDy=0;endFill=0;" parent="1" source="TYahg0QMOu6PUOr_qrVB-64" target="TYahg0QMOu6PUOr_qrVB-11" edge="1">
          <mxGeometry width="50" height="50" relative="1" as="geometry">
            <mxPoint x="910" y="1401.5527110974147" as="sourcePoint" />
            <mxPoint x="1028" y="1339.5527110974147" as="targetPoint" />
          </mxGeometry>
        </mxCell>
        <mxCell id="TYahg0QMOu6PUOr_qrVB-103" value="" style="endArrow=block;html=1;rounded=0;exitX=0.5;exitY=0;exitDx=0;exitDy=0;entryX=1;entryY=1;entryDx=0;entryDy=0;endFill=0;" parent="1" source="TYahg0QMOu6PUOr_qrVB-65" target="TYahg0QMOu6PUOr_qrVB-11" edge="1">
          <mxGeometry width="50" height="50" relative="1" as="geometry">
            <mxPoint x="1080" y="1601.5527110974147" as="sourcePoint" />
            <mxPoint x="1198" y="1539.5527110974147" as="targetPoint" />
          </mxGeometry>
        </mxCell>
        <mxCell id="TYahg0QMOu6PUOr_qrVB-105" value="" style="endArrow=block;html=1;rounded=0;exitX=0.458;exitY=0;exitDx=0;exitDy=0;entryX=0;entryY=1;entryDx=0;entryDy=0;exitPerimeter=0;endFill=0;" parent="1" source="TYahg0QMOu6PUOr_qrVB-47" target="TYahg0QMOu6PUOr_qrVB-12" edge="1">
          <mxGeometry width="50" height="50" relative="1" as="geometry">
            <mxPoint x="1220" y="1391.5527110974147" as="sourcePoint" />
            <mxPoint x="1338" y="1329.5527110974147" as="targetPoint" />
          </mxGeometry>
        </mxCell>
        <mxCell id="TYahg0QMOu6PUOr_qrVB-107" value="" style="endArrow=block;html=1;rounded=0;exitX=0.5;exitY=0;exitDx=0;exitDy=0;entryX=1;entryY=1;entryDx=0;entryDy=0;endFill=0;" parent="1" source="TYahg0QMOu6PUOr_qrVB-48" target="TYahg0QMOu6PUOr_qrVB-12" edge="1">
          <mxGeometry width="50" height="50" relative="1" as="geometry">
            <mxPoint x="1320" y="1561.5527110974147" as="sourcePoint" />
            <mxPoint x="1438" y="1499.5527110974147" as="targetPoint" />
          </mxGeometry>
        </mxCell>
      </root>
    </mxGraphModel>
  </diagram>
  <diagram id="3cgRSR0oJUTEMIVbmhhY" name="Страница — 2">
    <mxGraphModel dx="1247" dy="798" grid="1" gridSize="10" guides="1" tooltips="1" connect="1" arrows="1" fold="1" page="1" pageScale="1" pageWidth="2000" pageHeight="2000" math="0" shadow="0">
      <root>
        <mxCell id="0" />
        <mxCell id="1" parent="0" />
        <mxCell id="BvjOCDMoVAckG1oQ5deE-1" value="Abstract class Пользователь" style="swimlane;fontStyle=1;align=center;verticalAlign=top;childLayout=stackLayout;horizontal=1;startSize=26;horizontalStack=0;resizeParent=1;resizeParentMax=0;resizeLast=0;collapsible=1;marginBottom=0;whiteSpace=wrap;html=1;" vertex="1" parent="1">
          <mxGeometry x="283" y="31" width="290" height="250" as="geometry" />
        </mxCell>
        <mxCell id="BvjOCDMoVAckG1oQ5deE-2" value="+ id: int" style="text;strokeColor=none;fillColor=none;align=left;verticalAlign=top;spacingLeft=4;spacingRight=4;overflow=hidden;rotatable=0;points=[[0,0.5],[1,0.5]];portConstraint=eastwest;whiteSpace=wrap;html=1;" vertex="1" parent="BvjOCDMoVAckG1oQ5deE-1">
          <mxGeometry y="26" width="290" height="26" as="geometry" />
        </mxCell>
        <mxCell id="BvjOCDMoVAckG1oQ5deE-5" value="+ имя: string" style="text;strokeColor=none;fillColor=none;align=left;verticalAlign=top;spacingLeft=4;spacingRight=4;overflow=hidden;rotatable=0;points=[[0,0.5],[1,0.5]];portConstraint=eastwest;whiteSpace=wrap;html=1;" vertex="1" parent="BvjOCDMoVAckG1oQ5deE-1">
          <mxGeometry y="52" width="290" height="26" as="geometry" />
        </mxCell>
        <mxCell id="BvjOCDMoVAckG1oQ5deE-6" value="+ фамилия: string" style="text;strokeColor=none;fillColor=none;align=left;verticalAlign=top;spacingLeft=4;spacingRight=4;overflow=hidden;rotatable=0;points=[[0,0.5],[1,0.5]];portConstraint=eastwest;whiteSpace=wrap;html=1;" vertex="1" parent="BvjOCDMoVAckG1oQ5deE-1">
          <mxGeometry y="78" width="290" height="26" as="geometry" />
        </mxCell>
        <mxCell id="BvjOCDMoVAckG1oQ5deE-7" value="+ телефон: string" style="text;strokeColor=none;fillColor=none;align=left;verticalAlign=top;spacingLeft=4;spacingRight=4;overflow=hidden;rotatable=0;points=[[0,0.5],[1,0.5]];portConstraint=eastwest;whiteSpace=wrap;html=1;" vertex="1" parent="BvjOCDMoVAckG1oQ5deE-1">
          <mxGeometry y="104" width="290" height="26" as="geometry" />
        </mxCell>
        <mxCell id="BvjOCDMoVAckG1oQ5deE-8" value="+ адрес_доставки: string" style="text;strokeColor=none;fillColor=none;align=left;verticalAlign=top;spacingLeft=4;spacingRight=4;overflow=hidden;rotatable=0;points=[[0,0.5],[1,0.5]];portConstraint=eastwest;whiteSpace=wrap;html=1;" vertex="1" parent="BvjOCDMoVAckG1oQ5deE-1">
          <mxGeometry y="130" width="290" height="26" as="geometry" />
        </mxCell>
        <mxCell id="BvjOCDMoVAckG1oQ5deE-3" value="" style="line;strokeWidth=1;fillColor=none;align=left;verticalAlign=middle;spacingTop=-1;spacingLeft=3;spacingRight=3;rotatable=0;labelPosition=right;points=[];portConstraint=eastwest;strokeColor=inherit;" vertex="1" parent="BvjOCDMoVAckG1oQ5deE-1">
          <mxGeometry y="156" width="290" height="8" as="geometry" />
        </mxCell>
        <mxCell id="BvjOCDMoVAckG1oQ5deE-4" value="+ авторизация(телефон): void" style="text;strokeColor=none;fillColor=none;align=left;verticalAlign=top;spacingLeft=4;spacingRight=4;overflow=hidden;rotatable=0;points=[[0,0.5],[1,0.5]];portConstraint=eastwest;whiteSpace=wrap;html=1;" vertex="1" parent="BvjOCDMoVAckG1oQ5deE-1">
          <mxGeometry y="164" width="290" height="26" as="geometry" />
        </mxCell>
        <mxCell id="BvjOCDMoVAckG1oQ5deE-9" value="+ обновление_профиля(): void" style="text;strokeColor=none;fillColor=none;align=left;verticalAlign=top;spacingLeft=4;spacingRight=4;overflow=hidden;rotatable=0;points=[[0,0.5],[1,0.5]];portConstraint=eastwest;whiteSpace=wrap;html=1;" vertex="1" parent="BvjOCDMoVAckG1oQ5deE-1">
          <mxGeometry y="190" width="290" height="30" as="geometry" />
        </mxCell>
        <mxCell id="BvjOCDMoVAckG1oQ5deE-10" value="+ просмотр_корзины(): void" style="text;strokeColor=none;fillColor=none;align=left;verticalAlign=top;spacingLeft=4;spacingRight=4;overflow=hidden;rotatable=0;points=[[0,0.5],[1,0.5]];portConstraint=eastwest;whiteSpace=wrap;html=1;" vertex="1" parent="BvjOCDMoVAckG1oQ5deE-1">
          <mxGeometry y="220" width="290" height="30" as="geometry" />
        </mxCell>
        <mxCell id="MVCjWSupxTXP_eQSByu--1" value="Interface Редактировать информацию" style="swimlane;fontStyle=1;align=center;verticalAlign=top;childLayout=stackLayout;horizontal=1;startSize=26;horizontalStack=0;resizeParent=1;resizeParentMax=0;resizeLast=0;collapsible=1;marginBottom=0;whiteSpace=wrap;html=1;" vertex="1" parent="1">
          <mxGeometry x="740" y="30" width="280" height="86" as="geometry" />
        </mxCell>
        <mxCell id="MVCjWSupxTXP_eQSByu--2" value="+ field: type" style="text;strokeColor=none;fillColor=none;align=left;verticalAlign=top;spacingLeft=4;spacingRight=4;overflow=hidden;rotatable=0;points=[[0,0.5],[1,0.5]];portConstraint=eastwest;whiteSpace=wrap;html=1;" vertex="1" parent="MVCjWSupxTXP_eQSByu--1">
          <mxGeometry y="26" width="280" height="26" as="geometry" />
        </mxCell>
        <mxCell id="MVCjWSupxTXP_eQSByu--3" value="" style="line;strokeWidth=1;fillColor=none;align=left;verticalAlign=middle;spacingTop=-1;spacingLeft=3;spacingRight=3;rotatable=0;labelPosition=right;points=[];portConstraint=eastwest;strokeColor=inherit;" vertex="1" parent="MVCjWSupxTXP_eQSByu--1">
          <mxGeometry y="52" width="280" height="8" as="geometry" />
        </mxCell>
        <mxCell id="MVCjWSupxTXP_eQSByu--4" value="+ method(type): type" style="text;strokeColor=none;fillColor=none;align=left;verticalAlign=top;spacingLeft=4;spacingRight=4;overflow=hidden;rotatable=0;points=[[0,0.5],[1,0.5]];portConstraint=eastwest;whiteSpace=wrap;html=1;" vertex="1" parent="MVCjWSupxTXP_eQSByu--1">
          <mxGeometry y="60" width="280" height="26" as="geometry" />
        </mxCell>
        <mxCell id="0c8Z_8rN5TbGmIw5jy47-1" value="Class Пользователь" style="swimlane;fontStyle=1;align=center;verticalAlign=top;childLayout=stackLayout;horizontal=1;startSize=26;horizontalStack=0;resizeParent=1;resizeParentMax=0;resizeLast=0;collapsible=1;marginBottom=0;whiteSpace=wrap;html=1;" vertex="1" parent="1">
          <mxGeometry x="360" y="370" width="160" height="86" as="geometry" />
        </mxCell>
        <mxCell id="0c8Z_8rN5TbGmIw5jy47-2" value="+ field: type" style="text;strokeColor=none;fillColor=none;align=left;verticalAlign=top;spacingLeft=4;spacingRight=4;overflow=hidden;rotatable=0;points=[[0,0.5],[1,0.5]];portConstraint=eastwest;whiteSpace=wrap;html=1;" vertex="1" parent="0c8Z_8rN5TbGmIw5jy47-1">
          <mxGeometry y="26" width="160" height="26" as="geometry" />
        </mxCell>
        <mxCell id="0c8Z_8rN5TbGmIw5jy47-3" value="" style="line;strokeWidth=1;fillColor=none;align=left;verticalAlign=middle;spacingTop=-1;spacingLeft=3;spacingRight=3;rotatable=0;labelPosition=right;points=[];portConstraint=eastwest;strokeColor=inherit;" vertex="1" parent="0c8Z_8rN5TbGmIw5jy47-1">
          <mxGeometry y="52" width="160" height="8" as="geometry" />
        </mxCell>
        <mxCell id="0c8Z_8rN5TbGmIw5jy47-4" value="+ method(type): type" style="text;strokeColor=none;fillColor=none;align=left;verticalAlign=top;spacingLeft=4;spacingRight=4;overflow=hidden;rotatable=0;points=[[0,0.5],[1,0.5]];portConstraint=eastwest;whiteSpace=wrap;html=1;" vertex="1" parent="0c8Z_8rN5TbGmIw5jy47-1">
          <mxGeometry y="60" width="160" height="26" as="geometry" />
        </mxCell>
        <mxCell id="0c8Z_8rN5TbGmIw5jy47-5" value="" style="endArrow=block;html=1;rounded=0;exitX=0.5;exitY=0;exitDx=0;exitDy=0;entryX=0.538;entryY=1.009;entryDx=0;entryDy=0;endFill=0;entryPerimeter=0;" edge="1" parent="1" source="0c8Z_8rN5TbGmIw5jy47-1" target="BvjOCDMoVAckG1oQ5deE-10">
          <mxGeometry width="50" height="50" relative="1" as="geometry">
            <mxPoint x="380" y="432.00271109741465" as="sourcePoint" />
            <mxPoint x="498" y="370.00271109741465" as="targetPoint" />
          </mxGeometry>
        </mxCell>
        <mxCell id="cNFtn43rlMUmp2YAEx2x-1" value="Class Заказ" style="swimlane;fontStyle=1;align=center;verticalAlign=top;childLayout=stackLayout;horizontal=1;startSize=26;horizontalStack=0;resizeParent=1;resizeParentMax=0;resizeLast=0;collapsible=1;marginBottom=0;whiteSpace=wrap;html=1;" vertex="1" parent="1">
          <mxGeometry x="150" y="510" width="160" height="112" as="geometry" />
        </mxCell>
        <mxCell id="cNFtn43rlMUmp2YAEx2x-2" value="+ id: int" style="text;strokeColor=none;fillColor=none;align=left;verticalAlign=top;spacingLeft=4;spacingRight=4;overflow=hidden;rotatable=0;points=[[0,0.5],[1,0.5]];portConstraint=eastwest;whiteSpace=wrap;html=1;" vertex="1" parent="cNFtn43rlMUmp2YAEx2x-1">
          <mxGeometry y="26" width="160" height="26" as="geometry" />
        </mxCell>
        <mxCell id="cNFtn43rlMUmp2YAEx2x-5" value="+ статус: string" style="text;strokeColor=none;fillColor=none;align=left;verticalAlign=top;spacingLeft=4;spacingRight=4;overflow=hidden;rotatable=0;points=[[0,0.5],[1,0.5]];portConstraint=eastwest;whiteSpace=wrap;html=1;" vertex="1" parent="cNFtn43rlMUmp2YAEx2x-1">
          <mxGeometry y="52" width="160" height="26" as="geometry" />
        </mxCell>
        <mxCell id="cNFtn43rlMUmp2YAEx2x-3" value="" style="line;strokeWidth=1;fillColor=none;align=left;verticalAlign=middle;spacingTop=-1;spacingLeft=3;spacingRight=3;rotatable=0;labelPosition=right;points=[];portConstraint=eastwest;strokeColor=inherit;" vertex="1" parent="cNFtn43rlMUmp2YAEx2x-1">
          <mxGeometry y="78" width="160" height="8" as="geometry" />
        </mxCell>
        <mxCell id="cNFtn43rlMUmp2YAEx2x-4" value="+ method(type): type" style="text;strokeColor=none;fillColor=none;align=left;verticalAlign=top;spacingLeft=4;spacingRight=4;overflow=hidden;rotatable=0;points=[[0,0.5],[1,0.5]];portConstraint=eastwest;whiteSpace=wrap;html=1;" vertex="1" parent="cNFtn43rlMUmp2YAEx2x-1">
          <mxGeometry y="86" width="160" height="26" as="geometry" />
        </mxCell>
        <mxCell id="cNFtn43rlMUmp2YAEx2x-6" value="Class Оплата" style="swimlane;fontStyle=1;align=center;verticalAlign=top;childLayout=stackLayout;horizontal=1;startSize=26;horizontalStack=0;resizeParent=1;resizeParentMax=0;resizeLast=0;collapsible=1;marginBottom=0;whiteSpace=wrap;html=1;" vertex="1" parent="1">
          <mxGeometry x="740" y="506" width="160" height="86" as="geometry" />
        </mxCell>
        <mxCell id="cNFtn43rlMUmp2YAEx2x-7" value="+ field: type" style="text;strokeColor=none;fillColor=none;align=left;verticalAlign=top;spacingLeft=4;spacingRight=4;overflow=hidden;rotatable=0;points=[[0,0.5],[1,0.5]];portConstraint=eastwest;whiteSpace=wrap;html=1;" vertex="1" parent="cNFtn43rlMUmp2YAEx2x-6">
          <mxGeometry y="26" width="160" height="26" as="geometry" />
        </mxCell>
        <mxCell id="cNFtn43rlMUmp2YAEx2x-8" value="" style="line;strokeWidth=1;fillColor=none;align=left;verticalAlign=middle;spacingTop=-1;spacingLeft=3;spacingRight=3;rotatable=0;labelPosition=right;points=[];portConstraint=eastwest;strokeColor=inherit;" vertex="1" parent="cNFtn43rlMUmp2YAEx2x-6">
          <mxGeometry y="52" width="160" height="8" as="geometry" />
        </mxCell>
        <mxCell id="cNFtn43rlMUmp2YAEx2x-9" value="+ method(type): type" style="text;strokeColor=none;fillColor=none;align=left;verticalAlign=top;spacingLeft=4;spacingRight=4;overflow=hidden;rotatable=0;points=[[0,0.5],[1,0.5]];portConstraint=eastwest;whiteSpace=wrap;html=1;" vertex="1" parent="cNFtn43rlMUmp2YAEx2x-6">
          <mxGeometry y="60" width="160" height="26" as="geometry" />
        </mxCell>
        <mxCell id="cNFtn43rlMUmp2YAEx2x-10" value="Interface Payable" style="swimlane;fontStyle=1;align=center;verticalAlign=top;childLayout=stackLayout;horizontal=1;startSize=26;horizontalStack=0;resizeParent=1;resizeParentMax=0;resizeLast=0;collapsible=1;marginBottom=0;whiteSpace=wrap;html=1;" vertex="1" parent="1">
          <mxGeometry x="740" y="680" width="160" height="100" as="geometry" />
        </mxCell>
        <mxCell id="cNFtn43rlMUmp2YAEx2x-11" value="+ field: type" style="text;strokeColor=none;fillColor=none;align=left;verticalAlign=top;spacingLeft=4;spacingRight=4;overflow=hidden;rotatable=0;points=[[0,0.5],[1,0.5]];portConstraint=eastwest;whiteSpace=wrap;html=1;" vertex="1" parent="cNFtn43rlMUmp2YAEx2x-10">
          <mxGeometry y="26" width="160" height="26" as="geometry" />
        </mxCell>
        <mxCell id="cNFtn43rlMUmp2YAEx2x-12" value="" style="line;strokeWidth=1;fillColor=none;align=left;verticalAlign=middle;spacingTop=-1;spacingLeft=3;spacingRight=3;rotatable=0;labelPosition=right;points=[];portConstraint=eastwest;strokeColor=inherit;" vertex="1" parent="cNFtn43rlMUmp2YAEx2x-10">
          <mxGeometry y="52" width="160" height="8" as="geometry" />
        </mxCell>
        <mxCell id="cNFtn43rlMUmp2YAEx2x-13" value="+ executePayment() : boolean" style="text;strokeColor=none;fillColor=none;align=left;verticalAlign=top;spacingLeft=4;spacingRight=4;overflow=hidden;rotatable=0;points=[[0,0.5],[1,0.5]];portConstraint=eastwest;whiteSpace=wrap;html=1;" vertex="1" parent="cNFtn43rlMUmp2YAEx2x-10">
          <mxGeometry y="60" width="160" height="40" as="geometry" />
        </mxCell>
        <mxCell id="cNFtn43rlMUmp2YAEx2x-14" value="" style="endArrow=block;html=1;rounded=0;exitX=0.494;exitY=0.983;exitDx=0;exitDy=0;entryX=0.5;entryY=0;entryDx=0;entryDy=0;endFill=0;exitPerimeter=0;dashed=1;dashPattern=8 8;" edge="1" parent="1" source="cNFtn43rlMUmp2YAEx2x-9" target="cNFtn43rlMUmp2YAEx2x-10">
          <mxGeometry width="50" height="50" relative="1" as="geometry">
            <mxPoint x="580" y="652" as="sourcePoint" />
            <mxPoint x="698" y="590" as="targetPoint" />
          </mxGeometry>
        </mxCell>
        <mxCell id="cNFtn43rlMUmp2YAEx2x-15" value="&amp;lt;&amp;lt; реализация &amp;gt;&amp;gt;" style="edgeLabel;html=1;align=center;verticalAlign=middle;resizable=0;points=[];" vertex="1" connectable="0" parent="cNFtn43rlMUmp2YAEx2x-14">
          <mxGeometry x="-0.2523" y="1" relative="1" as="geometry">
            <mxPoint as="offset" />
          </mxGeometry>
        </mxCell>
      </root>
    </mxGraphModel>
  </diagram>
</mxfile>
